#!OML:ASF I:\Actors\actors\Patient Classification 1\Patient 1\Session 1\Subject1.ASF
:FULLY-SPECIFIED
:DEGREES
1142
root 0.397402 17.5276 8.49792 33.1817 9.90994 -8.67522
lowerback 17.51 -0.160991 6.12748
upperback -4.65905 1.1778 -0.361816
thorax -15.1157 -0.0585318 -4.25359
lowerneck -1.67227 -4.91218 -4.32472
upperneck -17.1772 -4.31553 18.5786
head -4.18035 -2.90667 6.69675
rclavicle -7.95139e-015 2.38542e-015
rhumerus -5.20855 48.444 -70.4374
rradius 111.093
rwrist 12.397
rhand 11.6729 -49.4159
rfingers 7.12502
rthumb 36.7113 -75.5545
lclavicle -7.95139e-015 2.38542e-015
lhumerus 7.78561 -58.1539 49.1322
lradius 100.382
lwrist -16.1726
lhand -26.8939 -3.87585
lfingers 7.12502
lthumb -0.317595 26.1037
rfemur -30.0992 33.655 5.64823
rtibia -3.071
rfoot -27.1778 -42.4109
rtoes 30.3959
lfemur -41.6363 -55.9595 33.1898
ltibia -7.42293
lfoot -65.7875 52.6928
ltoes 47.4944
1143
root 0.398445 17.529 8.49297 33.0478 9.9516 -8.69116
lowerback 17.6323 -0.211205 6.20253
upperback -4.79225 1.14472 -0.344951
thorax -15.3566 -0.092257 -4.27218
lowerneck -2.12919 -4.84619 -4.04583
upperneck -16.1916 -4.38129 18.2967
head -3.81886 -2.8769 6.50045
rclavicle -1.86858e-014 3.33958e-014
rhumerus -5.34569 48.5554 -70.6315
rradius 110.998
rwrist 12.3887
rhand 11.7132 -49.3919
rfingers 7.12502
rthumb 36.7494 -75.5207
lclavicle -1.86858e-014 3.33958e-014
lhumerus 7.34278 -58.2851 49.4318
lradius 100.369
lwrist -16.0732
lhand -26.9669 -3.88804
lfingers 7.12502
lthumb -0.388146 26.0914
rfemur -29.9337 33.6509 5.77302
rtibia -3.06107
rfoot -27.2575 -42.3167
rtoes 30.6019
lfemur -41.5458 -56.0924 33.1418
ltibia -7.41148
lfoot -65.753 52.7126
ltoes 47.5041
1144
root 0.398929 17.5302 8.4872 32.9622 10.0121 -8.70885
lowerback 17.7125 -0.275181 6.26986
upperback -4.91626 1.09218 -0.300106
thorax -15.5643 -0.130669 -4.2468
lowerneck -3.01193 -4.8426 -3.76415
upperneck -14.7669 -4.60583 17.9311
head -3.24176 -2.8834 6.25255
rclavicle 7.15625e-015 -1.03368e-014
rhumerus -5.24022 48.7517 -70.6367
rradius 110.874
rwrist 12.3797
rhand 11.7551 -49.4633
rfingers 7.12502
rthumb 36.7891 -75.582
lclavicle 7.15625e-015 -1.03368e-014
lhumerus 6.92204 -58.3322 49.7259
lradius 100.385
lwrist -15.9028
lhand -26.8173 -3.84418
lfingers 7.12502
lthumb -0.24365 26.1354
rfemur -29.8324 33.6175 5.87683
rtibia -3.04295
rfoot -27.3171 -42.2564
rtoes 30.6636
lfemur -41.5538 -56.1728 33.1945
ltibia -7.39832
lfoot -65.7046 52.8202
ltoes 47.3557
1145
root 0.400143 17.5301 8.48099 32.882 10.101 -8.71579
lowerback 17.7935 -0.346641 6.39201
upperback -5.01224 1.04275 -0.250164
thorax -15.7387 -0.170731 -4.2469
lowerneck -3.24536 -4.67189 -4.02831
upperneck -13.9762 -4.45212 18.1706
head -2.96711 -2.75595 6.34052
rclavicle -2.22639e-014 5.56597e-015
rhumerus -4.95036 48.9037 -70.4855
rradius 110.656
rwrist 12.3684
rhand 11.9067 -49.4623
rfingers 7.12502
rthumb 36.9325 -75.5442
lclavicle -2.22639e-014 5.56597e-015
lhumerus 6.67538 -58.3296 49.9489
lradius 100.347
lwrist -15.7891
lhand -26.6568 -3.79589
lfingers 7.12502
lthumb -0.088605 26.1838
rfemur -29.7193 33.5509 5.98492
rtibia -3.03882
rfoot -27.3983 -42.1972
rtoes 30.8276
lfemur -41.6217 -56.265 33.2983
ltibia -7.37938
lfoot -65.7823 52.8099
ltoes 47.3724
1146
root 0.401802 17.53 8.4746 32.7902 10.249 -8.72634
lowerback 17.8903 -0.42176 6.59183
upperback -5.11591 1.01063 -0.192203
thorax -15.9311 -0.211136 -4.2873
lowerneck -3.67488 -4.62841 -4.00743
upperneck -12.9744 -4.53849 18.0612
head -2.59443 -2.72968 6.25638
rclavicle 3.97569e-016 4.29375e-014
rhumerus -4.85356 49.0139 -70.4022
rradius 110.492
rwrist 12.3784
rhand 12.0692 -49.4719
rfingers 7.12502
rthumb 37.0862 -75.514
lclavicle 3.97569e-016 4.29375e-014
lhumerus 6.48092 -58.3796 50.2302
lradius 100.255
lwrist -15.747
lhand -26.6761 -3.79119
lfingers 7.12502
lthumb -0.10726 26.1885
rfemur -29.5703 33.4515 6.15621
rtibia -3.0264
rfoot -27.5003 -42.1068
rtoes 31.0965
lfemur -41.718 -56.4023 33.4693
ltibia -7.39549
lfoot -65.8587 52.7357
ltoes 47.52
1147
root 0.4026 17.5298 8.46869 32.7311 10.358 -8.68372
lowerback 17.9562 -0.469836 6.73179
upperback -5.22501 0.995005 -0.160535
thorax -16.1092 -0.239832 -4.32813
lowerneck -3.9395 -4.61484 -3.79012
upperneck -12.1244 -4.66134 17.7588
head -2.30579 -2.73867 6.08876
rclavicle 1.82882e-014 1.03368e-014
rhumerus -5.00228 49.0758 -70.4545
rradius 110.462
rwrist 12.3651
rhand 12.1003 -49.5575
rfingers 7.12502
rthumb 37.1156 -75.592
lclavicle 1.82882e-014 1.03368e-014
lhumerus 6.31726 -58.5073 50.4891
lradius 100.171
lwrist -15.6335
lhand -26.841 -3.85948
lfingers 7.12502
lthumb -0.266514 26.1201
rfemur -29.4628 33.3416 6.23185
rtibia -3.01294
rfoot -27.5367 -42.0534
rtoes 31.1425
lfemur -41.7952 -56.5329 33.5637
ltibia -7.44731
lfoot -65.8025 52.768
ltoes 47.5295
1148
root 0.402457 17.5299 8.46279 32.6851 10.399 -8.58974
lowerback 18.033 -0.500214 6.77278
upperback -5.32639 0.974828 -0.161392
thorax -16.2851 -0.262925 -4.34884
lowerneck -8.83252 -6.17029 -4.92803
upperneck -6.68311 -7.47316 18.5122
head 0.488374 -3.62924 6.15305
rclavicle -1.90833e-014 -7.15625e-015
rhumerus -5.16291 49.1119 -70.525
rradius 110.454
rwrist 12.2693
rhand 11.9306 -49.6197
rfingers 7.12502
rthumb 36.955 -75.6958
lclavicle -1.90833e-014 -7.15625e-015
lhumerus 6.19139 -58.6629 50.6501
lradius 100.11
lwrist -15.523
lhand -26.9935 -3.87572
lfingers 7.12502
lthumb -0.413805 26.1036
rfemur -29.3758 33.2494 6.20527
rtibia -3.01644
rfoot -27.5014 -42.0532
rtoes 31.0229
lfemur -41.8678 -56.6372 33.5581
ltibia -7.46318
lfoot -65.714 52.8729
ltoes 47.4341
1149
root 0.401577 17.5298 8.45639 32.6102 10.4733 -8.50653
lowerback 18.1496 -0.548703 6.8277
upperback -5.41973 0.936698 -0.161642
thorax -16.4791 -0.296192 -4.37177
lowerneck -5.71278 -4.76655 -5.91543
upperneck -9.19533 -5.10943 19.6485
head -0.953456 -2.70416 6.92095
rclavicle -3.49861e-014 6.52014e-014
rhumerus -5.27852 49.1536 -70.6004
rradius 110.368
rwrist 12.1289
rhand 11.6974 -49.5772
rfingers 7.12502
rthumb 36.7345 -75.7099
lclavicle -3.49861e-014 6.52014e-014
lhumerus 6.07716 -58.7697 50.7893
lradius 100.044
lwrist -15.5353
lhand -26.9248 -3.93754
lfingers 7.12502
lthumb -0.34747 26.0419
rfemur -29.2292 33.1631 6.25504
rtibia -3.02142
rfoot -27.4877 -42.0409
rtoes 31.0579
lfemur -41.9809 -56.7537 33.6158
ltibia -7.45577
lfoot -65.7308 52.9091
ltoes 47.4049
1150
root 0.401165 17.5291 8.45065 32.5216 10.5397 -8.46643
lowerback 18.2396 -0.57698 6.92395
upperback -5.48819 0.93446 -0.153875
thorax -16.6216 -0.314353 -4.41937
lowerneck -5.62858 -4.67963 -5.6066
upperneck -8.79094 -5.07721 19.2649
head -0.882503 -2.67627 6.73856
rclavicle 3.49861e-014 1.90833e-014
rhumerus -5.34628 49.1092 -70.62
rradius 110.254
rwrist 12.0187
rhand 11.7501 -49.4449
rfingers 7.12502
rthumb 36.7843 -75.5648
lclavicle 3.49861e-014 1.90833e-014
lhumerus 6.11447 -58.8626 50.8629
lradius 99.94
lwrist -15.5355
lhand -26.7651 -3.94908
lfingers 7.12502
lthumb -0.193237 26.0306
rfemur -29.0762 33.1166 6.35121
rtibia -3.01968
rfoot -27.4949 -42.0189
rtoes 31.1713
lfemur -41.9778 -56.8799 33.6279
ltibia -7.50753
lfoot -65.7718 52.9552
ltoes 47.4206
